# xmcd
# 
# Track frame offsets:
#     150
#     14812
#     32947
#     48672
#     65907
#     87472
#     110547
#     129792
#     143987
#     159022
#     177867
#     199377
#     212837
#     226260
# 
# Disc length: 3190
# 
# Revision: 2
# Processed by: cddbd v1.5.2PL0 Copyright (c) Steve Scherf et al.
# Submitted via: fre:ac v1.0.31
# 
DISCID=cd0c740e
DTITLE=John Denver - The Best Of
DYEAR=0
DGENRE=Country
TTITLE0=Take Me Home Countryroads
TTITLE1=Windsong
TTITLE2=Rocky Mountain Suite
TTITLE3=Calypso
TTITLE4=Eagles and Horses
TTITLE5=Sunshine On My Shoulders
TTITLE6=To The Wild Country
TTITLE7=Annie's Song
TTITLE8=For You
TTITLE9=Rocky Mountain High
TTITLE10=The Gift You Are
TTITLE11=Eagle and The Hawk
TTITLE12=Whispering Jesse
TTITLE13=The Flower That Shattered The Stone
EXTD=
EXTT0=
EXTT1=
EXTT2=
EXTT3=
EXTT4=
EXTT5=
EXTT6=
EXTT7=
EXTT8=
EXTT9=
EXTT10=
EXTT11=
EXTT12=
EXTT13=
PLAYORDER=
